# xmcd CD database file generated by Grip 3.3.0
# 
# Track frame offsets:
#       150
#       12957
#       25462
#       38892
#       50172
#       64240
#       76317
#       90997
#       105582
#       119865
#       131947
#       144505
#       156980
#       170050
#       189832
#       202705
# 
# Disc length: 2854 seconds
# 
# Revision: 3
# Processed by: cddbd v1.5.1PL0 Copyright (c) Steve Scherf et al.
# Submitted via: Grip 3.3.0
# 
DISCID=e00b2410
DTITLE=Muddy Waters - Got My Mojo Working
DYEAR=1992
DGENRE=Blues
TTITLE0=I Just Want To Make Love To You
TTITLE1=When The Eagle Flies
TTITLE2=Rollin' And Tumblin'
TTITLE3=Crawlin' Kingsnake
TTITLE4=Rollin' Stone
TTITLE5=Flood
TTITLE6=Still A Fool
TTITLE7=Good Morning Little Schoolgirl
TTITLE8=Feel Like Goin' Home
TTITLE9=Find Yourself Another Fool
TTITLE10=Can't Get No Grindin'
TTITLE11=Got My Mojo Working
TTITLE12=Manish Boy
TTITLE13=Young Fashioned Ways
TTITLE14=I'm Your Hoochie Coochie Man
TTITLE15=You Need Love
EXTD=
EXTT0=
EXTT1=
EXTT2=
EXTT3=
EXTT4=
EXTT5=
EXTT6=
EXTT7=
EXTT8=
EXTT9=
EXTT10=
EXTT11=
EXTT12=
EXTT13=
EXTT14=
EXTT15=
PLAYORDER=
